<svg width="68" height="31" viewBox="0 0 68 31" fill="none" xmlns="http://www.w3.org/2000/svg">
<path d="M18.0722 14.8557L15.9777 0.934662H13.0299L9.34512 9.48619L5.66035 0.934662H2.73193L0.598633 14.8557H3.58523L4.92339 5.78717L8.97665 14.8358H9.69422L13.7475 5.78717L15.0856 14.8557H18.0722Z" fill="white"/>
<path d="M24.0028 15.174C27.2415 15.174 29.6657 12.7279 29.6657 9.48623C29.6657 6.24462 27.2415 3.81836 24.0028 3.81836C20.7641 3.81836 18.3398 6.24462 18.3398 9.48623C18.3398 12.7279 20.7641 15.174 24.0028 15.174ZM24.0028 12.4295C22.3737 12.4295 21.2101 11.2363 21.2101 9.48623C21.2101 7.75605 22.3737 6.54291 24.0028 6.54291C25.6318 6.54291 26.7954 7.75605 26.7954 9.48623C26.7954 11.2363 25.6318 12.4295 24.0028 12.4295Z" fill="white"/>
<path d="M35.6844 15.174C38.9231 15.174 41.3473 12.7279 41.3473 9.48623C41.3473 6.24462 38.9231 3.81836 35.6844 3.81836C32.4457 3.81836 30.0215 6.24462 30.0215 9.48623C30.0215 12.7279 32.4457 15.174 35.6844 15.174ZM35.6844 12.4295C34.0553 12.4295 32.8917 11.2363 32.8917 9.48623C32.8917 7.75605 34.0553 6.54291 35.6844 6.54291C37.3135 6.54291 38.4771 7.75605 38.4771 9.48623C38.4771 11.2363 37.3135 12.4295 35.6844 12.4295Z" fill="white"/>
<path d="M48.8877 4.11667L46.3665 11.3159L43.8066 4.11667H40.7812L45.0478 14.8558H47.6659L51.8161 4.11667H48.8877Z" fill="white"/>
<path d="M52.3784 2.68477H55.1904V0H52.3784V2.68477ZM52.3784 14.8558H55.2098V4.11666H52.3784V14.8558Z" fill="white"/>
<path d="M67.1011 9.46634C67.1011 6.36392 64.8903 3.81836 61.6709 3.81836C58.568 3.81836 56.2407 6.2645 56.2407 9.48623C56.2407 12.708 58.5874 15.174 61.6709 15.174C64.1145 15.174 66.1121 13.6824 66.8684 11.3357H63.9012C63.4746 12.1113 62.66 12.5886 61.6709 12.5886C60.294 12.5886 59.3631 11.7733 59.111 10.3016H67.043C67.0818 10.0232 67.1011 9.74477 67.1011 9.46634H67.1011ZM61.6709 6.30425C62.9509 6.30425 63.8624 7.02021 64.2697 8.33277H59.1886C59.5182 7.05999 60.4104 6.30425 61.6709 6.30425Z" fill="white"/>
<path d="M10.7996 16.7608H0.307678V19.5649H4.08943V30.6818H7.01786V19.5649H10.7996V16.7608Z" fill="#E74C3C"/>
<path d="M11.4625 18.5109H14.2745V15.8261H11.4625V18.5109ZM11.4625 30.6819H14.2939V19.9428H11.4625V30.6819Z" fill="#E74C3C"/>
<path d="M27.9305 19.704C26.5924 19.704 25.4094 20.3802 24.6918 21.4143C24.0712 20.3404 22.9852 19.704 21.647 19.704C20.4058 19.704 19.2616 20.3205 18.5247 21.2751L18.001 19.9427H16.0229V30.6818H18.8543V24.8747C18.8543 23.2042 19.6107 22.2496 20.8907 22.2496C21.8991 22.2496 22.4422 23.0053 22.4422 24.4372V30.6818H25.196V24.8747C25.196 23.2042 25.9524 22.2496 27.213 22.2496C28.2409 22.2496 28.7839 23.0053 28.7839 24.4372V30.6818H31.6153V23.9599C31.6153 21.4342 30.1026 19.704 27.9305 19.704Z" fill="#E74C3C"/>
<path d="M43.397 25.2924C43.397 22.19 41.1861 19.6444 37.9668 19.6444C34.8638 19.6444 32.5366 22.0905 32.5366 25.3123C32.5366 28.534 34.8832 31 37.9668 31C40.4104 31 42.408 29.5085 43.1643 27.1618H40.1971C39.7704 27.9374 38.9559 28.4147 37.9668 28.4147C36.5899 28.4147 35.659 27.5993 35.4069 26.1276H43.3388C43.3777 25.8492 43.3969 25.5708 43.3969 25.2924H43.397ZM37.9668 22.1303C39.2468 22.1303 40.1583 22.8463 40.5656 24.1588H35.4844C35.8141 22.886 36.7062 22.1303 37.9668 22.1303Z" fill="#E74C3C"/>
</svg>
